<?xml version="1.0" standalone="no"?><!DOCTYPE svg PUBLIC "-//W3C//DTD SVG 1.1//EN" "http://www.w3.org/Graphics/SVG/1.1/DTD/svg11.dtd"><svg t="1570515064534" class="icon" viewBox="0 0 1153 1024" version="1.1" xmlns="http://www.w3.org/2000/svg" p-id="5488" xmlns:xlink="http://www.w3.org/1999/xlink" width="225.1953125" height="200"><defs><style type="text/css"></style></defs><path d="M473.137349 949.975904c-67.238554-110.419277-159.151807-204.183133-268.337349-272.655422-16.655422-10.486747-32.077108-7.40241-32.693976 6.785542l-14.804819 283.142169c-1.233735 19.122892 24.057831 45.031325 43.79759 44.414458l264.019277-30.226506c14.187952-0.616867 17.889157-14.804819 8.019277-31.460241z" fill="#F1F0EC" p-id="5489"></path><path d="M192.462651 702.612048l46.26506 53.050603-57.985542 225.156626 11.720482-278.207229z" fill="#29BE96" p-id="5490"></path><path d="M1047.440964 66.621687l39.479518 39.479518c72.173494 72.173494 72.173494 188.761446 0.616867 260.93494l-0.616867 0.616867-617.484337 615.633735-301.648193-301.031325 617.484337-615.633735c72.790361-72.173494 189.995181-72.173494 262.168675 0z" fill="#29BE96" p-id="5491"></path><path d="M733.455422 163.46988l275.122891 268.954216-544.077108 531.739759-275.122892-268.954216 544.077109-531.739759z" fill="#EB4545" p-id="5492"></path><path d="M931.46988 355.93253l77.108433 77.108434-537.291566 539.142169-77.108434-77.108434L931.46988 355.93253z" fill="#FA6E6E" p-id="5493"></path><path d="M714.949398 149.281928L814.26506 249.214458l-534.207229 536.674699-99.315662-99.93253 534.207229-536.674699z" fill="#D14040" p-id="5494"></path><path d="M756.279518 103.016867L1054.843373 396.028916l-45.031325 44.414457-298.563855-293.012048 45.031325-44.414458z" fill="#012428" p-id="5495"></path><path d="M1051.759036 383.074699c28.992771-28.375904 78.342169-69.706024 80.192771-141.879518 2.46747-74.640964-35.778313-106.101205-93.146988-164.086747 100.549398 93.763855 12.954217 305.966265 12.954217 305.966265" fill="#59D5B4" p-id="5496"></path><path d="M9.253012 977.73494h185.677108v30.843373H9.253012v-30.843373z" fill="#012428" p-id="5497"></path></svg>